<svg
  xmlns="http://www.w3.org/2000/svg"
  xmlns:xlink="http://www.w3.org/1999/xlink"
  x="0px"
  y="0px"
  viewBox="0 0 1000 1000"
  xml:space="preserve"
  fill="#FFFFFF"
>
  <g>
    <path
      d="M500,10C229.4,10,10,229.4,10,500c0,270.6,219.4,490,490,490c270.6,0,490-219.4,490-490C990,229.4,770.6,10,500,10z M500,898.1c-219.9,0-398.1-178.2-398.1-398.1c0-219.9,178.2-398.1,398.1-398.1c219.9,0,398.1,178.2,398.1,398.1C898.1,719.9,719.9,898.1,500,898.1z M316.3,316.3h122.5v367.5H316.3V316.3L316.3,316.3z M561.3,316.3h122.5v367.5H561.3V316.3z"
    />
  </g>
</svg>
